<?xml version="1.0" encoding="UTF-8"?>
<svg id="Layer_2" data-name="Layer 2" xmlns="http://www.w3.org/2000/svg" viewBox="0 0 957.3 960.41">
  <g id="Layer_1-2" data-name="Layer 1">
    <g>
      <path fill="#fbbf24" d="M346.37,308.91C449.12,205.77,552.82,103.5,655.24,0l207.21,206.02L207.24,864.22,0,657.82c116.16-115.59,230.72-232.83,346.37-348.91ZM535.5,254.97l-29.29-30.6-27.56,27.92c-.67,3.85,35.85,33.47,37.23,38.67.39,1.48,0,2.62-1.07,3.67-4.41,2.81-21.55,26.46-25.82,24.54l-38.08-39.26-28.92,29.04,30.41,30.24c1.2,1.5.14,2.11-.64,3.25-5.56,8.12-18.83,16.8-25.16,25.12-5.38-2.9-29.18-31.27-32.11-30.75l-27.81,27.68,69.63,70.92c.33,1.16-.59,1.66-1.11,2.44-1.37,2.05-22.91,23.84-24.49,24.55-3.38,1.54-8.33-7.07-10.32-9.09-20.26-20.54-41.09-40.53-61.38-61.04l-27.56,28.86c3.76,5.85,29.24,26.69,29.68,31.11.15,1.48-.26,2.78-1.28,3.87l-24.97,23.73c-4.8-3.24-29.65-31.15-32.29-30.68l-27.81,27.68c4.42,5.74,38.76,36.41,38.77,39.87-7.33,10.19-17.82,18.4-26.41,27.74l-40.04-39.82-27.56,28.86,30.34,30.41-.62,3.27-26.46,25.11c-4.47-3.47-29.61-31.2-32.11-30.75l-27.81,27.68,70.92,70.92-25.63,27.02-72.96-70.15-38.67,38.73c-1.36,2.65,4.49,7.14,5.87,9.68l122.76,122.19,1.91.64,2.63-1.26L787.22,206.99l-131.82-132.44-121.52,122.03,30.95,32.16c-6.58,6.72-13.31,13.32-19.93,20-2.25,2.27-4.62,8.98-9.41,6.24Z"/>
      <path fill="#f59e0b" d="M860.68,406.33l91.06,23.51,5.45,50.7c.53,27.73-.94,55.54-5.2,82.89l-87.67,22.67-4.17,2.28c-8.68,34.09-21.01,67.41-38.53,97.89,14.05,27.79,31.72,53.72,47.06,80.86.51,1.53.23,2.75-.43,4.17-1.12,2.41-10.97,14.12-13.55,17.43-22.92,29.37-51.04,55.42-80.55,78.04l-81.12-48.21c-27.19,16.5-56.17,29.33-86.21,39.73-7.09,2.45-19.81,2.84-22.24,10l-21.11,84.44-3.13,3.31-46.09,4.26c-29.04.44-58.15-.61-86.83-5.27l-22.99-89.92c-24.06-8.58-49.36-14.48-71.56-27.57l97.37-97.32c10.42,1.2,20.44,4.64,30.84,6.01,60.76,7.97,119.34-6.53,170.4-39.59,88.98-57.62,133.39-171.06,104.62-274.05l97.7-98.08c12.6,22.37,19.6,47.33,26.87,71.81Z"/>
      <circle fill="#fbbf24" cx="658.46" cy="143.16" r="35" />
    </g>
  </g>
</svg>